<svg xmlns="http://www.w3.org/2000/svg" xmlns:xlink="http://www.w3.org/1999/xlink" width="512" height="512" viewBox="0 0 512 512" fill="none"><path fill="#B3F1BE" d="M0 512L512 512L512 0L0 0L0 512Z"></path><path d="M339.999 88L433.332 88C448.265 88 461.332 101.067 461.332 116L461.332 172C461.332 186.933 448.265 200 433.332 200L367.999 200L311.999 256L311.999 116C311.999 101.067 325.066 88 339.999 88ZM87.9999 88C67.4666 88 50.6667 104.8 50.6667 125.333L50.6667 386.666C50.6667 407.199 67.4666 423.999 87.9999 423.999L237.333 423.999C257.866 423.999 274.666 407.199 274.666 386.666L274.666 125.333C274.666 104.8 257.866 88 237.333 88L87.9999 88ZM162.666 125.333C183.2 125.333 200 142.133 200 162.667C200 183.2 183.2 200 162.666 200C142.133 200 125.333 183.2 125.333 162.667C125.333 142.133 142.133 125.333 162.666 125.333ZM162.666 237.333C203.733 237.333 237.333 270.933 237.333 312C237.333 353.066 203.733 386.666 162.666 386.666C121.6 386.666 87.9999 353.066 87.9999 312C87.9999 270.933 121.6 237.333 162.666 237.333ZM162.666 274.666C142.133 274.666 125.333 291.466 125.333 312C125.333 332.533 142.133 349.333 162.666 349.333C183.2 349.333 200 332.533 200 312C200 291.466 183.2 274.666 162.666 274.666Z" fill="#00210C"></path></svg>